<mxfile host="app.diagrams.net" modified="2023-06-17T20:05:12.880Z" agent="Mozilla/5.0 (Windows NT 10.0; Win64; x64) AppleWebKit/537.36 (KHTML, like Gecko) Chrome/114.0.0.0 Safari/537.36" etag="NarDhb15iGllSlcMjXUs" version="21.4.0" type="github">
  <diagram name="Page-1" id="G06-oRd1ZwhpZ1Jju4MH">
    <mxGraphModel dx="1434" dy="764" grid="1" gridSize="10" guides="1" tooltips="1" connect="1" arrows="1" fold="1" page="1" pageScale="1" pageWidth="827" pageHeight="1169" math="0" shadow="0">
      <root>
        <mxCell id="0" />
        <mxCell id="1" parent="0" />
        <mxCell id="piW-Pc_f1Dx6fLSBUiNF-1" value="&lt;u&gt;:Client&lt;/u&gt;" style="rounded=0;whiteSpace=wrap;html=1;" vertex="1" parent="1">
          <mxGeometry x="110" y="160" width="120" height="60" as="geometry" />
        </mxCell>
        <mxCell id="piW-Pc_f1Dx6fLSBUiNF-2" value="&lt;u&gt;:Site Web&lt;/u&gt;" style="rounded=0;whiteSpace=wrap;html=1;" vertex="1" parent="1">
          <mxGeometry x="370" y="160" width="120" height="60" as="geometry" />
        </mxCell>
        <mxCell id="piW-Pc_f1Dx6fLSBUiNF-3" value="&lt;u&gt;:Système de base de données&lt;/u&gt;" style="rounded=0;whiteSpace=wrap;html=1;" vertex="1" parent="1">
          <mxGeometry x="520" y="160" width="120" height="60" as="geometry" />
        </mxCell>
        <mxCell id="piW-Pc_f1Dx6fLSBUiNF-4" value="Payer panier" style="rounded=1;whiteSpace=wrap;html=1;" vertex="1" parent="1">
          <mxGeometry x="30" y="90" width="170" height="30" as="geometry" />
        </mxCell>
        <mxCell id="piW-Pc_f1Dx6fLSBUiNF-5" value="" style="endArrow=none;dashed=1;html=1;dashPattern=1 3;strokeWidth=2;rounded=0;entryX=0.408;entryY=0.993;entryDx=0;entryDy=0;entryPerimeter=0;" edge="1" parent="1" source="piW-Pc_f1Dx6fLSBUiNF-8" target="piW-Pc_f1Dx6fLSBUiNF-1">
          <mxGeometry width="50" height="50" relative="1" as="geometry">
            <mxPoint x="160" y="761.4285714285714" as="sourcePoint" />
            <mxPoint x="480" y="350" as="targetPoint" />
          </mxGeometry>
        </mxCell>
        <mxCell id="piW-Pc_f1Dx6fLSBUiNF-6" value="" style="endArrow=none;dashed=1;html=1;dashPattern=1 3;strokeWidth=2;rounded=0;entryX=0.408;entryY=0.993;entryDx=0;entryDy=0;entryPerimeter=0;" edge="1" parent="1" source="piW-Pc_f1Dx6fLSBUiNF-10">
          <mxGeometry width="50" height="50" relative="1" as="geometry">
            <mxPoint x="430.5" y="761.4285714285714" as="sourcePoint" />
            <mxPoint x="429.5" y="220" as="targetPoint" />
          </mxGeometry>
        </mxCell>
        <mxCell id="piW-Pc_f1Dx6fLSBUiNF-7" value="" style="endArrow=none;dashed=1;html=1;dashPattern=1 3;strokeWidth=2;rounded=0;entryX=0.5;entryY=1;entryDx=0;entryDy=0;" edge="1" parent="1" source="piW-Pc_f1Dx6fLSBUiNF-28" target="piW-Pc_f1Dx6fLSBUiNF-3">
          <mxGeometry width="50" height="50" relative="1" as="geometry">
            <mxPoint x="580" y="680" as="sourcePoint" />
            <mxPoint x="689.5" y="220" as="targetPoint" />
          </mxGeometry>
        </mxCell>
        <mxCell id="piW-Pc_f1Dx6fLSBUiNF-8" value="" style="rounded=0;whiteSpace=wrap;html=1;" vertex="1" parent="1">
          <mxGeometry x="160" y="230" width="10" height="460" as="geometry" />
        </mxCell>
        <mxCell id="piW-Pc_f1Dx6fLSBUiNF-9" value="1) Clique sur payer panier" style="endArrow=classic;html=1;rounded=0;exitX=0.971;exitY=0.19;exitDx=0;exitDy=0;exitPerimeter=0;" edge="1" parent="1" source="piW-Pc_f1Dx6fLSBUiNF-8">
          <mxGeometry x="0.2002" y="9" width="50" height="50" relative="1" as="geometry">
            <mxPoint x="430" y="380" as="sourcePoint" />
            <mxPoint x="420" y="320" as="targetPoint" />
            <mxPoint as="offset" />
          </mxGeometry>
        </mxCell>
        <mxCell id="piW-Pc_f1Dx6fLSBUiNF-10" value="" style="rounded=0;whiteSpace=wrap;html=1;" vertex="1" parent="1">
          <mxGeometry x="425" y="230" width="10" height="460" as="geometry" />
        </mxCell>
        <mxCell id="piW-Pc_f1Dx6fLSBUiNF-11" value="" style="endArrow=classic;html=1;rounded=0;exitX=-0.386;exitY=0.288;exitDx=0;exitDy=0;exitPerimeter=0;entryX=1.257;entryY=0.291;entryDx=0;entryDy=0;entryPerimeter=0;" edge="1" parent="1" source="piW-Pc_f1Dx6fLSBUiNF-10" target="piW-Pc_f1Dx6fLSBUiNF-8">
          <mxGeometry width="50" height="50" relative="1" as="geometry">
            <mxPoint x="430" y="260" as="sourcePoint" />
            <mxPoint x="480" y="210" as="targetPoint" />
          </mxGeometry>
        </mxCell>
        <mxCell id="piW-Pc_f1Dx6fLSBUiNF-12" value="2) Affiche champs pour informations de paiement" style="edgeLabel;html=1;align=center;verticalAlign=middle;resizable=0;points=[];" vertex="1" connectable="0" parent="piW-Pc_f1Dx6fLSBUiNF-11">
          <mxGeometry x="0.1552" y="2" relative="1" as="geometry">
            <mxPoint x="23" y="-15" as="offset" />
          </mxGeometry>
        </mxCell>
        <mxCell id="piW-Pc_f1Dx6fLSBUiNF-13" value="3) Rempli champs" style="endArrow=classic;html=1;rounded=0;exitX=1.257;exitY=0.384;exitDx=0;exitDy=0;exitPerimeter=0;entryX=0.2;entryY=0.385;entryDx=0;entryDy=0;entryPerimeter=0;" edge="1" parent="1" source="piW-Pc_f1Dx6fLSBUiNF-8" target="piW-Pc_f1Dx6fLSBUiNF-10">
          <mxGeometry x="-0.051" y="17" width="50" height="50" relative="1" as="geometry">
            <mxPoint x="430" y="450" as="sourcePoint" />
            <mxPoint x="420" y="407" as="targetPoint" />
            <mxPoint as="offset" />
          </mxGeometry>
        </mxCell>
        <mxCell id="piW-Pc_f1Dx6fLSBUiNF-14" value="" style="endArrow=classic;html=1;rounded=0;exitX=1.257;exitY=0.459;exitDx=0;exitDy=0;exitPerimeter=0;entryX=0.054;entryY=0.46;entryDx=0;entryDy=0;entryPerimeter=0;" edge="1" parent="1" source="piW-Pc_f1Dx6fLSBUiNF-8" target="piW-Pc_f1Dx6fLSBUiNF-10">
          <mxGeometry width="50" height="50" relative="1" as="geometry">
            <mxPoint x="430" y="450" as="sourcePoint" />
            <mxPoint x="480" y="400" as="targetPoint" />
          </mxGeometry>
        </mxCell>
        <mxCell id="piW-Pc_f1Dx6fLSBUiNF-15" value="4) Clique sur valider" style="edgeLabel;html=1;align=center;verticalAlign=middle;resizable=0;points=[];" vertex="1" connectable="0" parent="piW-Pc_f1Dx6fLSBUiNF-14">
          <mxGeometry x="-0.1008" y="3" relative="1" as="geometry">
            <mxPoint y="-8" as="offset" />
          </mxGeometry>
        </mxCell>
        <mxCell id="piW-Pc_f1Dx6fLSBUiNF-19" value="9) Affiche message récapitulaftif / confirmatif" style="endArrow=classic;html=1;rounded=0;entryX=1.4;entryY=0.788;entryDx=0;entryDy=0;entryPerimeter=0;" edge="1" parent="1" target="piW-Pc_f1Dx6fLSBUiNF-8">
          <mxGeometry x="-0.1059" y="-12" width="50" height="50" relative="1" as="geometry">
            <mxPoint x="420" y="592" as="sourcePoint" />
            <mxPoint x="446" y="568" as="targetPoint" />
            <mxPoint as="offset" />
          </mxGeometry>
        </mxCell>
        <mxCell id="piW-Pc_f1Dx6fLSBUiNF-20" value="" style="endArrow=classic;html=1;rounded=0;exitX=1;exitY=0.5;exitDx=0;exitDy=0;entryX=0;entryY=0;entryDx=0;entryDy=0;" edge="1" parent="1" source="piW-Pc_f1Dx6fLSBUiNF-10" target="piW-Pc_f1Dx6fLSBUiNF-16">
          <mxGeometry width="50" height="50" relative="1" as="geometry">
            <mxPoint x="390" y="420" as="sourcePoint" />
            <mxPoint x="620" y="460" as="targetPoint" />
          </mxGeometry>
        </mxCell>
        <mxCell id="piW-Pc_f1Dx6fLSBUiNF-25" value="5) Renseigne paiement&amp;nbsp;" style="edgeLabel;html=1;align=center;verticalAlign=middle;resizable=0;points=[];" vertex="1" connectable="0" parent="piW-Pc_f1Dx6fLSBUiNF-20">
          <mxGeometry x="-0.4646" y="1" relative="1" as="geometry">
            <mxPoint x="158" y="-9" as="offset" />
          </mxGeometry>
        </mxCell>
        <mxCell id="piW-Pc_f1Dx6fLSBUiNF-21" value="&lt;u&gt;:Compte bancaire client&lt;/u&gt;" style="rounded=0;whiteSpace=wrap;html=1;" vertex="1" parent="1">
          <mxGeometry x="685" y="160" width="120" height="60" as="geometry" />
        </mxCell>
        <mxCell id="piW-Pc_f1Dx6fLSBUiNF-22" value="" style="endArrow=none;dashed=1;html=1;dashPattern=1 3;strokeWidth=2;rounded=0;entryX=0.5;entryY=1;entryDx=0;entryDy=0;" edge="1" parent="1" source="piW-Pc_f1Dx6fLSBUiNF-16">
          <mxGeometry width="50" height="50" relative="1" as="geometry">
            <mxPoint x="760" y="680" as="sourcePoint" />
            <mxPoint x="760" y="220" as="targetPoint" />
          </mxGeometry>
        </mxCell>
        <mxCell id="piW-Pc_f1Dx6fLSBUiNF-24" value="" style="endArrow=none;dashed=1;html=1;dashPattern=1 3;strokeWidth=2;rounded=0;entryX=0.5;entryY=1;entryDx=0;entryDy=0;" edge="1" parent="1" target="piW-Pc_f1Dx6fLSBUiNF-16">
          <mxGeometry width="50" height="50" relative="1" as="geometry">
            <mxPoint x="760" y="680" as="sourcePoint" />
            <mxPoint x="760" y="220" as="targetPoint" />
          </mxGeometry>
        </mxCell>
        <mxCell id="piW-Pc_f1Dx6fLSBUiNF-16" value="" style="rounded=0;whiteSpace=wrap;html=1;" vertex="1" parent="1">
          <mxGeometry x="760" y="460" width="10" height="40" as="geometry" />
        </mxCell>
        <mxCell id="piW-Pc_f1Dx6fLSBUiNF-26" value="" style="endArrow=classic;html=1;rounded=0;exitX=0;exitY=1;exitDx=0;exitDy=0;" edge="1" parent="1" source="piW-Pc_f1Dx6fLSBUiNF-16">
          <mxGeometry width="50" height="50" relative="1" as="geometry">
            <mxPoint x="390" y="420" as="sourcePoint" />
            <mxPoint x="440" y="500" as="targetPoint" />
          </mxGeometry>
        </mxCell>
        <mxCell id="piW-Pc_f1Dx6fLSBUiNF-27" value="6) Confirme paiement" style="edgeLabel;html=1;align=center;verticalAlign=middle;resizable=0;points=[];" vertex="1" connectable="0" parent="piW-Pc_f1Dx6fLSBUiNF-26">
          <mxGeometry x="-0.3333" y="-1" relative="1" as="geometry">
            <mxPoint x="27" y="-8" as="offset" />
          </mxGeometry>
        </mxCell>
        <mxCell id="piW-Pc_f1Dx6fLSBUiNF-29" value="" style="endArrow=none;dashed=1;html=1;dashPattern=1 3;strokeWidth=2;rounded=0;entryX=0.5;entryY=1;entryDx=0;entryDy=0;" edge="1" parent="1" target="piW-Pc_f1Dx6fLSBUiNF-28">
          <mxGeometry width="50" height="50" relative="1" as="geometry">
            <mxPoint x="580" y="680" as="sourcePoint" />
            <mxPoint x="580" y="220" as="targetPoint" />
          </mxGeometry>
        </mxCell>
        <mxCell id="piW-Pc_f1Dx6fLSBUiNF-28" value="" style="rounded=0;whiteSpace=wrap;html=1;" vertex="1" parent="1">
          <mxGeometry x="575" y="520" width="10" height="40" as="geometry" />
        </mxCell>
        <mxCell id="piW-Pc_f1Dx6fLSBUiNF-30" value="7) Indique nouvelle commande" style="endArrow=classic;html=1;rounded=0;entryX=0;entryY=0;entryDx=0;entryDy=0;" edge="1" parent="1" target="piW-Pc_f1Dx6fLSBUiNF-28">
          <mxGeometry x="0.1852" y="10" width="50" height="50" relative="1" as="geometry">
            <mxPoint x="440" y="520" as="sourcePoint" />
            <mxPoint x="440" y="370" as="targetPoint" />
            <mxPoint as="offset" />
          </mxGeometry>
        </mxCell>
        <mxCell id="piW-Pc_f1Dx6fLSBUiNF-31" value="8) Confirme commande&lt;br&gt;enregistrée" style="endArrow=classic;html=1;rounded=0;entryX=1.3;entryY=0.713;entryDx=0;entryDy=0;entryPerimeter=0;" edge="1" parent="1" target="piW-Pc_f1Dx6fLSBUiNF-10">
          <mxGeometry x="-0.0865" y="-19" width="50" height="50" relative="1" as="geometry">
            <mxPoint x="570" y="560" as="sourcePoint" />
            <mxPoint x="440" y="370" as="targetPoint" />
            <mxPoint as="offset" />
          </mxGeometry>
        </mxCell>
      </root>
    </mxGraphModel>
  </diagram>
</mxfile>
